<svg width="142" height="162" xmlns="http://www.w3.org/2000/svg">
 <g>
  <title>Layer 1</title>
  <g id="svg_14">
   <path stroke-width="0" stroke="#000" id="svg_7" d="m0.0026,20.56341l50.1881,23.50417l44.28184,-44.06758l-8.17511,61.35563c-8.17604,3.51188 -11.96694,5.1446 -14.30644,6.10166c1.03353,-7.23816 4.65326,-32.31769 4.65326,-32.31769c0,0 -22.48155,22.03379 -22.70663,21.80926c0.22508,0.22453 -28.38781,-14.01269 -28.38781,-14.01269c0,0 14.64707,30.50833 14.422,30.2838c-7.26877,-2.14834 -40.30984,-16.72454 -39.96921,-52.65657z" opacity="NaN" fill="#ffd332"/>
   <path id="svg_10" d="m72.01036,67.38591c0,0 29.95584,14.13388 29.95584,14.13388c0,0 -10.50654,2.06379 -10.63071,1.93939c0.12417,0.12439 20.76202,9.88047 20.76202,9.88047c0,0 29.45584,-4.12757 29.45584,-4.12757c0,0 -47.34699,-24.08016 -55.34613,-27.82954c-9.2508,3.87438 -3.88005,1.68889 -14.19686,6.00337z" opacity="NaN" stroke-width="0" stroke="#000" fill="#41abdd"/>
   <path id="svg_12" d="m69.25509,86.91595c-0.12822,0.30013 -4.87604,32.86292 -4.87604,32.86292c0,0 -15.31248,-30.12498 -15.37469,-30.14557c0.06221,0.02059 -22.81278,19.64558 -22.87499,19.62499c0.06221,0.02059 14.1872,-28.35439 14.12499,-28.37498c-38.15566,28.33746 -40.18776,60.52054 -40.24996,60.49995c0.0622,-0.17743 44.81217,-39.35438 44.74996,-39.37497c0.06221,0.02059 3.76884,7.90358 26.87498,60.18746l9.15034,-62.79085l31.67551,-6.12009l-20.57394,-9.86975l-22.62616,3.50089z" opacity="NaN" stroke-width="0" stroke="#000" fill="#003399"/>
  </g>
 </g>

</svg>